<svg class="svg-icon" style="width: 1em;height: 1em;vertical-align: middle;fill: currentColor;overflow: hidden;" viewBox="0 0 1024 1024" version="1.1" xmlns="http://www.w3.org/2000/svg"><path d="M554.941935 171.767742H462.451613c-29.068387 0-52.851613-23.783226-52.851613-52.851613s23.783226-52.851613 52.851613-52.851613h92.490322c29.068387 0 52.851613 23.783226 52.851613 52.851613s-23.783226 52.851613-52.851613 52.851613z" fill='#CC3333' opacity="0.7" /><path d="M864.123871 118.916129H642.807742v11.230968c0.660645 3.303226 0.660645 0 0.660645 3.303226 0 38.978065-31.710968 71.349677-71.349677 71.349677H447.917419c-39.63871 0-71.349677-31.710968-71.349677-71.349677 0-5.285161 0.660645-3.303226 1.981935-8.588388v-6.606451H157.233548c-21.80129 0-39.63871 17.837419-39.638709 39.63871v759.741935c0 21.80129 17.837419 39.63871 39.638709 39.63871h706.890323c21.80129 0 39.63871-17.837419 39.63871-39.63871V158.554839c0-21.80129-18.498065-39.63871-39.63871-39.63871z m-498.126452 621.667097l-92.490322 59.458064c-2.642581 1.981935-5.945806 2.642581-9.249032 2.642581-5.285161 0-9.909677-2.642581-13.212904-6.606452l-33.032258-46.245161c-5.285161-7.267097-3.303226-17.837419 3.963871-23.122581 7.267097-5.285161 17.837419-3.303226 23.122581 3.963871l23.783226 33.692904 79.277419-50.869678c7.927742-4.624516 17.837419-2.642581 23.122581 5.285161 3.963871 6.606452 1.981935 17.176774-5.285162 21.801291z m0-204.8l-92.490322 59.458064c-2.642581 1.981935-5.945806 2.642581-9.249032 2.642581-5.285161 0-9.909677-2.642581-13.212904-6.606452l-33.032258-46.245161c-5.285161-7.267097-3.303226-17.837419 3.963871-23.122581 7.267097-5.285161 17.837419-3.303226 23.122581 3.963871l23.783226 33.692904 79.277419-50.869678c7.927742-4.624516 17.837419-2.642581 23.122581 5.285161 3.963871 6.606452 1.981935 17.176774-5.285162 21.801291z m0-198.193549l-92.490322 59.458065c-2.642581 1.981935-5.945806 2.642581-9.249032 2.642581-5.285161 0-9.909677-2.642581-13.212904-6.606452l-33.032258-46.245161c-5.285161-7.267097-3.303226-17.837419 3.963871-23.122581 7.267097-5.285161 17.837419-3.303226 23.122581 3.963871l23.783226 33.692903 79.277419-50.869677c7.927742-4.624516 17.837419-2.642581 23.122581 5.285161 3.963871 6.606452 1.981935 17.176774-5.285162 21.80129z m311.163871 435.365162h-184.980645c-9.249032 0-16.516129-7.267097-16.516129-16.516129s7.267097-16.516129 16.516129-16.516129h184.980645c9.249032 0 16.516129 7.267097 16.516129 16.516129s-7.267097 16.516129-16.516129 16.516129z m85.883871-204.8h-270.864516c-9.249032 0-16.516129-7.267097-16.516129-16.516129s7.267097-16.516129 16.516129-16.516129h270.864516c9.249032 0 16.516129 7.267097 16.516129 16.516129s-7.267097 16.516129-16.516129 16.516129z m0-191.587097h-270.864516c-9.249032 0-16.516129-7.267097-16.516129-16.516129s7.267097-16.516129 16.516129-16.516129h270.864516c9.249032 0 16.516129 7.267097 16.516129 16.516129s-7.267097 16.516129-16.516129 16.516129z" fill='#CC3333' opacity="0.7"/></svg>