<svg width="24" height="18" viewBox="0 0 24 18" fill="none" xmlns="http://www.w3.org/2000/svg">
<path d="M11.316 17.406H2.80098C2.53679 17.4308 2.27037 17.397 2.02081 17.3068C1.77124 17.2166 1.5447 17.0724 1.3574 16.8844C1.1701 16.6965 1.02668 16.4694 0.937397 16.2195C0.848118 15.9696 0.815192 15.7031 0.840977 15.439C0.840977 11.2597 0.840977 7.08032 0.840977 2.90099C0.820391 2.6401 0.856436 2.37783 0.946645 2.13217C1.03685 1.8865 1.17909 1.66324 1.36362 1.47767C1.54815 1.29209 1.77061 1.14859 2.01577 1.057C2.26092 0.965402 2.52297 0.927875 2.78398 0.946988H19.884C20.142 0.930483 20.4005 0.968857 20.6426 1.05958C20.8847 1.15029 21.1048 1.29129 21.2884 1.47329C21.472 1.65528 21.6149 1.87413 21.7077 2.11539C21.8006 2.35666 21.8412 2.61487 21.827 2.87299C21.827 3.73499 21.808 4.59799 21.837 5.45899C21.848 5.79699 21.731 5.84699 21.437 5.84099C20.503 5.82299 19.569 5.83099 18.637 5.83599C18.1948 5.84085 17.7579 5.93275 17.3513 6.10644C16.9447 6.28014 16.5762 6.53223 16.267 6.84832C15.9578 7.16442 15.7138 7.53831 15.5491 7.94867C15.3844 8.35904 15.3021 8.79783 15.307 9.23999C15.3118 9.68215 15.4037 10.119 15.5774 10.5257C15.7511 10.9323 16.0032 11.3008 16.3193 11.61C16.6354 11.9192 17.0093 12.1631 17.4197 12.3278C17.83 12.4926 18.2688 12.5748 18.711 12.57C19.645 12.585 20.579 12.581 21.511 12.57C21.754 12.57 21.841 12.626 21.837 12.885C21.821 13.785 21.837 14.685 21.829 15.579C21.8329 15.8222 21.7874 16.0638 21.6953 16.2889C21.6033 16.5141 21.4665 16.7183 21.2933 16.8892C21.1201 17.06 20.9141 17.194 20.6877 17.283C20.4613 17.372 20.2192 17.4142 19.976 17.407C17.09 17.411 14.204 17.411 11.318 17.407" fill="#795548"/>
<path d="M20.807 7.181C21.561 7.181 22.316 7.181 23.07 7.181C23.1749 7.16568 23.2819 7.1751 23.3825 7.20849C23.4831 7.24189 23.5745 7.29833 23.6494 7.37333C23.7243 7.44833 23.7806 7.53981 23.8139 7.64045C23.8472 7.7411 23.8564 7.84813 23.841 7.953C23.845 8.779 23.845 9.60532 23.841 10.432C23.8563 10.5402 23.8461 10.6505 23.8112 10.754C23.7762 10.8576 23.7175 10.9515 23.6398 11.0283C23.562 11.1051 23.4673 11.1626 23.3634 11.1962C23.2594 11.2299 23.149 11.2387 23.041 11.222C21.592 11.222 20.141 11.228 18.694 11.222C18.4273 11.2233 18.1629 11.1721 17.916 11.0712C17.6691 10.9704 17.4444 10.8219 17.2549 10.6342C17.0654 10.4465 16.9147 10.2234 16.8114 9.97746C16.7081 9.73155 16.6543 9.46772 16.653 9.201C16.6515 8.93715 16.7022 8.67559 16.8019 8.43133C16.9017 8.18707 17.0487 7.9649 17.2345 7.77754C17.4203 7.59018 17.6412 7.44131 17.8846 7.33946C18.128 7.23761 18.3891 7.18477 18.653 7.18399C19.371 7.17099 20.09 7.18399 20.808 7.18399L20.807 7.181ZM18.018 9.19599C18.0156 9.28213 18.0304 9.36787 18.0616 9.44819C18.0928 9.52852 18.1397 9.60179 18.1996 9.66374C18.2595 9.72568 18.3312 9.77504 18.4104 9.80891C18.4896 9.84278 18.5748 9.86049 18.661 9.86099C18.7503 9.86426 18.8394 9.84931 18.9228 9.81701C19.0061 9.78472 19.082 9.73577 19.1459 9.67317C19.2097 9.61056 19.2601 9.53561 19.294 9.45288C19.3279 9.37015 19.3445 9.28139 19.343 9.192C19.3405 9.01746 19.2719 8.85036 19.1511 8.72436C19.0303 8.59836 18.8663 8.52284 18.692 8.513C18.6026 8.51272 18.5141 8.53026 18.4316 8.5646C18.3491 8.59894 18.2743 8.64938 18.2116 8.71298C18.1488 8.77658 18.0994 8.85204 18.0661 8.93498C18.0329 9.01791 18.0165 9.10666 18.018 9.19599" fill="#795548"/>
</svg>
